<svg width="35" height="28" viewBox="0 0 35 28" fill="none" xmlns="http://www.w3.org/2000/svg">
<rect width="35" height="28" fill="#FFFBFB"/>
<path d="M33.8356 4.29183C33.1369 3.55989 32.1721 3.12738 31.0741 3.12738H25.5513V3.06084C25.5513 2.22909 25.2186 1.43061 24.653 0.898289C24.0875 0.3327 23.3222 0 22.4905 0H12.5095C11.6445 0 10.8793 0.3327 10.3137 0.898289C9.7481 1.46388 9.4154 2.22909 9.4154 3.06084V3.12738H3.92586C2.82795 3.12738 1.86312 3.55989 1.16445 4.29183C0.46578 4.99049 0 5.98859 0 7.05323V23.6217C0 24.7196 0.432509 25.6844 1.16445 26.3831C1.86312 27.0818 2.86122 27.5475 3.92586 27.5475H31.0741C32.1721 27.5475 33.1369 27.115 33.8356 26.3831C34.5342 25.6844 35 24.6863 35 23.6217V7.05323C35 5.95532 34.5675 4.99049 33.8356 4.29183ZM33.27 23.6217H33.2367C33.2367 24.2205 33.0038 24.7529 32.6046 25.1521C32.2053 25.5513 31.673 25.7842 31.0741 25.7842H3.92586C3.327 25.7842 2.79468 25.5513 2.39544 25.1521C1.9962 24.7529 1.76331 24.2205 1.76331 23.6217V7.05323C1.76331 6.45437 1.9962 5.92205 2.39544 5.52281C2.79468 5.12357 3.327 4.89068 3.92586 4.89068H10.347C10.846 4.89068 11.2452 4.49145 11.2452 3.9924V3.02757C11.2452 2.6616 11.3783 2.3289 11.6112 2.09601C11.8441 1.86312 12.1768 1.73004 12.5428 1.73004H22.4905C22.8565 1.73004 23.1892 1.86312 23.4221 2.09601C23.6549 2.3289 23.788 2.6616 23.788 3.02757V3.9924C23.788 4.49145 24.1873 4.89068 24.6863 4.89068H31.1074C31.7063 4.89068 32.2386 5.12357 32.6378 5.52281C33.0371 5.92205 33.27 6.45437 33.27 7.05323V23.6217Z" fill="#F62525"/>
<path d="M17.5 7.15305C15.2376 7.15305 13.1749 8.0846 11.711 9.54848C10.2139 11.0456 9.31558 13.0751 9.31558 15.3375C9.31558 17.5998 10.2471 19.6626 11.711 21.1264C13.2082 22.6236 15.2376 23.5219 17.5 23.5219C19.7624 23.5219 21.8251 22.5903 23.289 21.1264C24.7861 19.6293 25.6844 17.5998 25.6844 15.3375C25.6844 13.0751 24.7529 11.0124 23.289 9.54848C21.8251 8.0846 19.7624 7.15305 17.5 7.15305ZM22.0247 19.8954C20.8603 21.0266 19.2633 21.7586 17.5 21.7586C15.7367 21.7586 14.1397 21.0266 12.9753 19.8954C11.8108 18.731 11.1122 17.134 11.1122 15.3707C11.1122 13.6074 11.8441 12.0105 12.9753 10.846C14.1397 9.68156 15.7367 8.98289 17.5 8.98289C19.2633 8.98289 20.8603 9.71483 22.0247 10.846C23.1892 12.0105 23.8878 13.6074 23.8878 15.3707C23.9211 17.134 23.1892 18.731 22.0247 19.8954Z" fill="#F62525"/>
<path d="M29.3441 10.3802C30.2445 10.3802 30.9743 9.65035 30.9743 8.75C30.9743 7.84965 30.2445 7.11977 29.3441 7.11977C28.4438 7.11977 27.7139 7.84965 27.7139 8.75C27.7139 9.65035 28.4438 10.3802 29.3441 10.3802Z" fill="#F62525"/>
</svg>
