<svg width="35" height="33" viewBox="0 0 35 33" fill="none" xmlns="http://www.w3.org/2000/svg">
<rect width="35" height="33" fill="#FFFCFC"/>
<g clip-path="url(#clip0)">
<path d="M15.5255 24.7487H12.36C11.1987 24.7487 10.2574 25.6362 10.2574 26.7311V28.9386H24.7431V26.7311C24.7431 25.6362 23.8017 24.7487 22.6405 24.7487H19.4749H15.5255Z" fill="#EFBE11"/>
<path d="M33.5751 4.52654C32.4871 2.91882 30.5798 2.03414 28.2058 2.03414H28.1442H6.85644H6.79478C4.42011 2.03414 2.51358 2.91876 1.4255 4.52654C0.249996 6.26335 0.219918 8.56716 1.34306 10.8487C3.4073 15.04 9.91914 16.4376 10.1958 16.495L10.8294 16.6268H10.8301H24.1698H24.1705L24.8048 16.495C25.0807 16.4376 31.5933 15.04 33.6568 10.8487C34.78 8.56716 34.7499 6.26335 33.5751 4.52654ZM31.7065 9.99447C30.8794 11.6739 28.9462 12.8092 27.4698 13.4654C26.8605 13.7364 26.2806 13.9486 25.7897 14.1094L9.211 14.1101H9.21032C8.71861 13.9485 8.13879 13.7364 7.53025 13.4653C6.05445 12.8091 4.12063 11.6738 3.29349 9.99441C2.48568 8.35421 2.46566 6.75868 3.23832 5.61721C3.91713 4.61362 5.18075 4.06151 6.79491 4.06151H6.85869H28.1422H28.206C29.8202 4.06151 31.0831 4.61362 31.7626 5.61721C32.5344 6.75874 32.5143 8.35427 31.7065 9.99447Z" fill="#EFBE11"/>
<path d="M19.0055 24.7487L19.0023 22.7808C19 21.3654 19.7783 20.0408 21.0725 19.3237C25.1937 17.0401 28.1438 10.9183 28.1438 3.72351V0H6.85623V3.72339C6.85623 10.9183 9.80655 17.0403 13.9279 19.3237C15.222 20.0408 16.0003 21.3653 15.998 22.7805L15.995 24.7486L17.7152 26.4278L19.0055 24.7487Z" fill="#EFBE11"/>
<path d="M16.7812 22.7807L16.7798 24.7487H15.995L15.9978 22.7807C16 21.3656 15.2216 20.041 13.9279 19.324C9.80648 17.0404 6.8563 10.9183 6.8563 3.72371V0H12.4069V3.72371C12.4069 10.9183 13.819 17.0404 15.7908 19.324C16.41 20.041 16.7827 21.3655 16.7812 22.7807Z" fill="#EFBE11"/>
<path d="M16.9474 24.7487H15.5257H12.36C11.1988 24.7487 10.2575 25.6362 10.2575 26.7311V28.9386H14.8447V26.7311C14.8447 25.6362 15.7861 24.7487 16.9474 24.7487Z" fill="#EFBE11"/>
<path d="M14.9785 27.8574H9.44513C8.78533 27.8574 8.25048 28.3616 8.25048 28.9837V33.0001H26.7501V28.9837C26.7501 28.3616 26.2153 27.8574 25.5555 27.8574H20.0221" fill="#4F5B5E"/>
<path d="M10.8785 27.8574H9.44505C8.78525 27.8574 8.25041 28.3616 8.25041 28.9837V33.0001H9.6839V28.9837C9.68403 28.3616 10.2188 27.8574 10.8785 27.8574Z" fill="#EFBE11"/>
</g>
<defs>
<clipPath id="clip0">
<rect width="35" height="33" fill="white"/>
</clipPath>
</defs>
</svg>
