<svg width="19" height="19" viewBox="0 0 19 19" fill="none" xmlns="http://www.w3.org/2000/svg">
<rect width="19" height="19" fill="#FFFCFC"/>
<path d="M17.6261 8.12659L2.11172 8.40288C1.43509 8.41493 0.896398 8.97319 0.908999 9.64928L0.922953 10.4663C0.935143 11.143 1.49343 11.6818 2.16951 11.6692L17.6839 11.3929C18.3606 11.3807 18.8993 10.8225 18.8867 10.1464L18.8722 9.33001C18.8612 8.65326 18.3028 8.11444 17.6261 8.12659Z" fill="#69DD56"/>
<path d="M8.12629 2.17019L8.40332 17.6846C8.4154 18.3612 8.97379 18.9 9.64988 18.8874L10.4663 18.8729C11.143 18.8608 11.6817 18.3025 11.6691 17.6264L11.3931 2.11201C11.3811 1.43528 10.8229 0.896561 10.1467 0.909237L9.33028 0.923775C8.65301 0.935202 8.11432 1.49346 8.12629 2.17019Z" fill="#69DD56"/>
</svg>
