<svg width="31" height="32" viewBox="0 0 31 32" fill="none" xmlns="http://www.w3.org/2000/svg">
<rect width="31" height="32" fill="#FFFBFB"/>
<path d="M2.02174 32H28.9783C30.0948 32 31 31.3488 31 30.5455V14.0606C31 13.2573 30.0948 12.6061 28.9783 12.6061H26.9565V8.24242C26.9565 3.69755 21.8171 0 15.5 0C9.18287 0 4.04348 3.69755 4.04348 8.24242V12.6061H2.02174C0.9052 12.6061 0 13.2573 0 14.0606V30.5455C0 31.3488 0.9052 32 2.02174 32ZM17.5217 22.7865V24.7273C17.5217 25.5306 16.6165 26.1818 15.5 26.1818C14.3835 26.1818 13.4783 25.5306 13.4783 24.7273V22.7865C12.6604 22.3439 12.1304 21.64 12.1304 20.8485C12.1304 19.5118 13.642 18.4242 15.5 18.4242C17.358 18.4242 18.8696 19.5118 18.8696 20.8485C18.8696 21.64 18.3396 22.3439 17.5217 22.7865ZM8.08696 8.24242C8.08696 5.30162 11.4124 2.90909 15.5 2.90909C19.5876 2.90909 22.913 5.30162 22.913 8.24242V12.6061H8.08696V8.24242Z" fill="#F62525"/>
</svg>
