<svg width="32" height="31" viewBox="0 0 32 31" fill="none" xmlns="http://www.w3.org/2000/svg">
<rect width="32" height="31" fill="#FFFCFC"/>
<path d="M2.08696 31H29.913C31.0656 31 32 30.3691 32 29.5909V13.6212C32 12.843 31.0656 12.2121 29.913 12.2121H27.8261V7.98485C27.8261 3.582 22.5209 0 16 0C9.4791 0 4.17391 3.582 4.17391 7.98485V12.2121H2.08696C0.9344 12.2121 0 12.843 0 13.6212V29.5909C0 30.3691 0.9344 31 2.08696 31ZM18.087 22.0744V23.9545C18.087 24.7327 17.1526 25.3636 16 25.3636C14.8474 25.3636 13.913 24.7327 13.913 23.9545V22.0744C13.0688 21.6456 12.5217 20.9637 12.5217 20.197C12.5217 18.902 14.0821 17.8485 16 17.8485C17.9179 17.8485 19.4783 18.902 19.4783 20.197C19.4783 20.9637 18.9312 21.6456 18.087 22.0744ZM8.34783 7.98485C8.34783 5.13595 11.7806 2.81818 16 2.81818C20.2194 2.81818 23.6522 5.13595 23.6522 7.98485V12.2121H8.34783V7.98485Z" fill="#EFBE11"/>
</svg>
