<svg width="30" height="28" viewBox="0 0 30 28" fill="none" xmlns="http://www.w3.org/2000/svg">
<rect width="30" height="28" fill="#666161"/>
<path d="M15.0009 4.67908e-10C11.8303 -2.41863e-05 8.74115 0.937637 6.17706 2.67837C3.61297 4.41911 1.70575 6.87338 0.729214 9.68887C-0.24732 12.5043 -0.242949 15.5362 0.741701 18.3492C1.72635 21.1623 3.64064 23.6117 6.20974 25.346L6.22354 25.355L6.22611 25.3568C8.78113 27.0753 11.8506 28 14.9999 28C18.1492 28 21.2187 27.0753 23.7737 25.3568L23.7885 25.3472C26.3579 23.6133 28.2726 21.164 29.2577 18.3511C30.2427 15.5382 30.2475 12.5063 29.2714 9.69062C28.2952 6.87498 26.3883 4.42045 23.8244 2.67939C21.2606 0.938343 18.1715 0.000321931 15.0009 4.67908e-10ZM7.10169 24.6474V23.7415C7.1011 22.8458 7.28964 21.9587 7.65653 21.131C8.02343 20.3032 8.56148 19.5511 9.23995 18.9176C9.91841 18.2841 10.724 17.7815 11.6106 17.4387C12.4973 17.0959 13.4476 16.9196 14.4073 16.9197H14.964H15.0009C15.0009 16.9197 15.0253 16.9197 15.0378 16.9197H15.5944C16.5541 16.9196 17.5045 17.0959 18.3911 17.4387C19.2778 17.7815 20.0833 18.2841 20.7618 18.9176C21.4403 19.5511 21.9783 20.3032 22.3452 21.131C22.7121 21.9587 22.9007 22.8458 22.9001 23.7415V24.6474C20.5796 26.1478 17.8238 26.9518 15.0009 26.9518C12.1779 26.9518 9.42218 26.1478 7.10169 24.6474ZM15.0378 15.8731H14.964C13.6481 15.868 12.3878 15.3769 11.4587 14.5071C10.5296 13.6374 10.0072 12.4596 10.0057 11.2314C10.0057 11.1116 10.0111 10.99 10.022 10.8678C10.1254 9.70137 10.695 8.61383 11.6177 7.8212C12.5404 7.02857 13.7488 6.58882 15.0028 6.58927C16.2568 6.58973 17.4648 7.03035 18.3869 7.82365C19.309 8.61694 19.8777 9.70489 19.9801 10.8714C19.9906 10.9912 19.9961 11.111 19.9961 11.2308C19.9946 12.459 19.4722 13.6368 18.5431 14.5065C17.6139 15.3763 16.3537 15.8674 15.0378 15.8725V15.8731ZM24.023 23.8346V23.7415C24.024 22.0439 23.4364 20.3915 22.3481 19.0314C21.2597 17.6712 19.729 16.6763 17.9847 16.1953C18.934 15.7038 19.7252 14.9842 20.2761 14.1112C20.8271 13.2381 21.1178 12.2434 21.1181 11.2302C21.1181 11.0805 21.1114 10.9307 21.0982 10.7858C20.9734 9.35655 20.2771 8.02343 19.1476 7.05133C18.0182 6.07924 16.5382 5.53932 15.0018 5.53887C13.4655 5.53841 11.9852 6.07746 10.855 7.04889C9.72491 8.02032 9.0277 9.35303 8.90195 10.7822C8.88847 10.9292 8.88173 11.0799 8.88173 11.2314C8.88222 12.2447 9.17321 13.2393 9.72453 14.1122C10.2759 14.9851 11.0674 15.7043 12.017 16.1953C10.2727 16.6763 8.742 17.6712 7.65363 19.0314C6.56527 20.3915 5.9777 22.0439 5.97874 23.7415V23.8346C3.82377 22.1135 2.28564 19.8173 1.57147 17.2553C0.857298 14.6933 1.00139 11.9886 1.98434 9.50539C2.9673 7.02218 4.7419 4.87973 7.06917 3.36657C9.39644 1.85341 12.1646 1.04221 15.0009 1.04221C17.8372 1.04221 20.6053 1.85341 22.9326 3.36657C25.2599 4.87973 27.0345 7.02218 28.0174 9.50539C29.0004 11.9886 29.1445 14.6933 28.4303 17.2553C27.7161 19.8173 26.178 22.1135 24.023 23.8346Z" fill="#EFBE11"/>
</svg>
