<svg width="40" height="40" viewBox="0 0 40 40" fill="none" xmlns="http://www.w3.org/2000/svg">
<rect width="40" height="40" fill="#FFFAFA"/>
<path d="M16.8352 23.266C16.8352 23.278 16.8292 23.284 16.8172 23.284C16.8172 23.284 16.8172 23.29 16.8172 23.302C16.8172 23.314 16.8232 23.32 16.8352 23.32H20.2732C20.3692 23.32 20.4172 23.266 20.4172 23.158V18.172C20.4172 18.16 20.4112 18.154 20.3992 18.154H20.3812L16.8352 23.266ZM15.4672 25.3C15.2032 25.3 14.9692 25.204 14.7652 25.012C14.5732 24.82 14.4772 24.586 14.4772 24.31C14.4772 23.638 14.6692 23.038 15.0532 22.51L19.8412 15.688C20.2252 15.136 20.7592 14.86 21.4432 14.86H21.8392C22.1152 14.86 22.3552 14.962 22.5592 15.166C22.7632 15.37 22.8652 15.61 22.8652 15.886V23.158C22.8652 23.266 22.9132 23.32 23.0092 23.32H23.8732C24.1492 23.32 24.3832 23.416 24.5752 23.608C24.7672 23.8 24.8632 24.034 24.8632 24.31C24.8632 24.586 24.7672 24.82 24.5752 25.012C24.3832 25.204 24.1492 25.3 23.8732 25.3H23.0092C22.9132 25.3 22.8652 25.354 22.8652 25.462V26.974C22.8652 27.25 22.7632 27.49 22.5592 27.694C22.3552 27.898 22.1152 28 21.8392 28H21.4432C21.1672 28 20.9272 27.898 20.7232 27.694C20.5192 27.49 20.4172 27.25 20.4172 26.974V25.462C20.4172 25.354 20.3692 25.3 20.2732 25.3H15.4672Z" fill="black"/>
<path d="M8.95284 40C8.5146 40 8.07941 39.8573 7.708 39.5771C7.01615 39.0539 6.69296 38.1545 6.88126 37.2868L9.45456 25.4583L0.727541 17.4721C0.0860452 16.8877 -0.159017 15.9623 0.104356 15.1155C0.367729 14.2703 1.0843 13.672 1.93271 13.5901L13.4796 12.4962L18.0449 1.34802C18.3815 0.528956 19.1481 0 19.9999 0C20.8516 0 21.6183 0.528956 21.9549 1.34611L26.5201 12.4962L38.0652 13.5901C38.9154 13.67 39.632 14.2703 39.8954 15.1155C40.1587 15.9607 39.9152 16.8877 39.2737 17.4721L30.5467 25.4567L33.12 37.2848C33.3086 38.1545 32.9851 39.0539 32.2936 39.5755C31.6035 40.0971 30.6834 40.1373 29.9568 39.6815L19.9999 33.4726L10.043 39.685C9.70634 39.8936 9.33127 40 8.95284 40V40ZM19.9999 30.7979C20.3783 30.7979 20.7531 30.9039 21.09 31.1125L30.4869 36.9772L28.0582 25.8131C27.8849 25.0185 28.1434 24.189 28.7318 23.6514L36.972 16.1104L26.07 15.0773C25.285 15.0025 24.61 14.4875 24.3033 13.7328L19.9999 3.21227L15.6913 13.7344C15.3879 14.484 14.7129 14.999 13.9298 15.0738L3.02618 16.1069L11.2661 23.6479C11.8564 24.1871 12.1145 25.015 11.9397 25.8115L9.51285 36.9753L18.9098 31.1125C19.2464 30.9039 19.6214 30.7979 19.9999 30.7979V30.7979ZM13.3914 12.7118C13.3914 12.7118 13.3914 12.7137 13.3896 12.7153L13.3914 12.7118ZM26.6049 12.7067L26.6068 12.7102C26.6068 12.7083 26.6068 12.7083 26.6049 12.7067Z" fill="black"/>
</svg>
