<svg width="197" height="34" viewBox="0 0 197 34" fill="none" xmlns="http://www.w3.org/2000/svg">
<rect width="197" height="34" fill="#FBFCFF"/>
<path d="M32.914 13.9506C32.698 13.2824 32.1053 12.8078 31.4041 12.7446L21.8794 11.8797L18.113 3.06426C17.8353 2.4182 17.2029 2 16.5002 2C15.7975 2 15.165 2.4182 14.8873 3.06577L11.121 11.8797L1.59475 12.7446C0.894809 12.8093 0.303638 13.2824 0.0863552 13.9506C-0.130928 14.6188 0.0697379 15.3517 0.599224 15.8137L7.79877 22.1278L5.67579 31.4795C5.52045 32.1671 5.78733 32.8779 6.35786 33.2903C6.66452 33.5118 7.0233 33.6246 7.3851 33.6246C7.69705 33.6246 8.00649 33.5405 8.2842 33.3744L16.5002 28.464L24.7131 33.3744C25.3141 33.7359 26.0717 33.7029 26.641 33.2903C27.2117 32.8766 27.4784 32.1656 27.323 31.4795L25.2001 22.1278L32.3996 15.815C32.9291 15.3517 33.1313 14.62 32.914 13.9506V13.9506Z" fill="#FFC107"/>
<path d="M171.386 33C171.025 33 170.666 32.8823 170.359 32.6511C169.788 32.2194 169.522 31.4775 169.677 30.7616L171.8 21.0031L164.6 14.4145C164.071 13.9324 163.869 13.1689 164.086 12.4703C164.303 11.773 164.895 11.2794 165.594 11.2118L175.121 10.3094L178.887 1.11212C179.165 0.436388 179.797 0 180.5 0C181.203 0 181.835 0.436388 182.113 1.11054L185.879 10.3094L195.404 11.2118C196.105 11.2778 196.696 11.773 196.914 12.4703C197.131 13.1676 196.93 13.9324 196.401 14.4145L189.201 21.0018L191.324 30.76C191.48 31.4775 191.213 32.2194 190.642 32.6498C190.073 33.0801 189.314 33.1132 188.714 32.7373L180.5 27.6149L172.285 32.7402C172.008 32.9122 171.698 33 171.386 33V33ZM180.5 25.4083C180.812 25.4083 181.121 25.4957 181.399 25.6678L189.152 30.5062L187.148 21.2958C187.005 20.6403 187.218 19.9559 187.704 19.5124L194.502 13.2911L185.508 12.4388C184.86 12.377 184.303 11.9522 184.05 11.3295L180.5 2.65012L176.945 11.3309C176.695 11.9493 176.138 12.3741 175.492 12.4359L166.497 13.2882L173.295 19.5095C173.781 19.9543 173.994 20.6374 173.85 21.2945L171.848 30.5046L179.601 25.6678C179.878 25.4957 180.188 25.4083 180.5 25.4083V25.4083ZM175.048 10.4872C175.048 10.4872 175.048 10.4888 175.046 10.4901L175.048 10.4872ZM185.949 10.483L185.951 10.4859C185.951 10.4844 185.951 10.4844 185.949 10.483Z" fill="black"/>
<path d="M130.386 34C130.025 34 129.666 33.8823 129.359 33.6511C128.788 33.2194 128.522 32.4775 128.677 31.7616L130.8 22.0031L123.6 15.4145C123.071 14.9324 122.869 14.1689 123.086 13.4703C123.303 12.773 123.895 12.2794 124.594 12.2118L134.121 11.3094L137.887 2.11212C138.165 1.43639 138.797 1 139.5 1C140.203 1 140.835 1.43639 141.113 2.11054L144.879 11.3094L154.404 12.2118C155.105 12.2778 155.696 12.773 155.914 13.4703C156.131 14.1676 155.93 14.9324 155.401 15.4145L148.201 22.0018L150.324 31.76C150.48 32.4775 150.213 33.2194 149.642 33.6498C149.073 34.0801 148.314 34.1132 147.714 33.7373L139.5 28.6149L131.285 33.7402C131.008 33.9122 130.698 34 130.386 34V34ZM139.5 26.4083C139.812 26.4083 140.121 26.4957 140.399 26.6678L148.152 31.5062L146.148 22.2958C146.005 21.6403 146.218 20.9559 146.704 20.5124L153.502 14.2911L144.508 13.4388C143.86 13.377 143.303 12.9522 143.05 12.3295L139.5 3.65012L135.945 12.3309C135.695 12.9493 135.138 13.3741 134.492 13.4359L125.497 14.2882L132.295 20.5095C132.781 20.9543 132.994 21.6374 132.85 22.2945L130.848 31.5046L138.601 26.6678C138.878 26.4957 139.188 26.4083 139.5 26.4083V26.4083ZM134.048 11.4872C134.048 11.4872 134.048 11.4888 134.046 11.4901L134.048 11.4872ZM144.949 11.483L144.951 11.4859C144.951 11.4844 144.951 11.4844 144.949 11.483Z" fill="black"/>
<path d="M89.3861 34C89.0245 34 88.6655 33.8823 88.3591 33.6511C87.7883 33.2194 87.5217 32.4775 87.677 31.7616L89.8 22.0031L82.6002 15.4145C82.071 14.9324 81.8688 14.1689 82.0861 13.4703C82.3034 12.773 82.8945 12.2794 83.5945 12.2118L93.1207 11.3094L96.887 2.11212C97.1647 1.43639 97.7972 1 98.4999 1C99.2026 1 99.8351 1.43639 100.113 2.11054L103.879 11.3094L113.404 12.2118C114.105 12.2778 114.696 12.773 114.914 13.4703C115.131 14.1676 114.93 14.9324 114.401 15.4145L107.201 22.0018L109.324 31.76C109.48 32.4775 109.213 33.2194 108.642 33.6498C108.073 34.0801 107.314 34.1132 106.714 33.7373L98.4999 28.6149L90.2854 33.7402C90.0077 33.9122 89.6983 34 89.3861 34V34ZM98.4999 26.4083C98.8121 26.4083 99.1213 26.4957 99.3992 26.6678L107.152 31.5062L105.148 22.2958C105.005 21.6403 105.218 20.9559 105.704 20.5124L112.502 14.2911L103.508 13.4388C102.86 13.377 102.303 12.9522 102.05 12.3295L98.4999 3.65012L94.9453 12.3309C94.695 12.9493 94.1381 13.3741 93.4921 13.4359L84.4966 14.2882L91.2946 20.5095C91.7815 20.9543 91.9945 21.6374 91.8502 22.2945L89.8481 31.5046L97.6005 26.6678C97.8783 26.4957 98.1877 26.4083 98.4999 26.4083V26.4083ZM93.0479 11.4872C93.0479 11.4872 93.0479 11.4888 93.0464 11.4901L93.0479 11.4872ZM103.949 11.483L103.951 11.4859C103.951 11.4844 103.951 11.4844 103.949 11.483Z" fill="black"/>
<path d="M48.3861 34C48.0245 34 47.6655 33.8823 47.3591 33.6511C46.7883 33.2194 46.5217 32.4775 46.677 31.7616L48.8 22.0031L41.6002 15.4145C41.071 14.9324 40.8688 14.1689 41.0861 13.4703C41.3034 12.773 41.8945 12.2794 42.5945 12.2118L52.1207 11.3094L55.887 2.11212C56.1647 1.43639 56.7972 1 57.4999 1C58.2026 1 58.8351 1.43639 59.1128 2.11054L62.8791 11.3094L72.4038 12.2118C73.1052 12.2778 73.6964 12.773 73.9137 13.4703C74.131 14.1676 73.93 14.9324 73.4008 15.4145L66.201 22.0018L68.324 31.76C68.4796 32.4775 68.2127 33.2194 67.6422 33.6498C67.0729 34.0801 66.3138 34.1132 65.7143 33.7373L57.4999 28.6149L49.2854 33.7402C49.0077 33.9122 48.6983 34 48.3861 34V34ZM57.4999 26.4083C57.8121 26.4083 58.1213 26.4957 58.3992 26.6678L66.1517 31.5062L64.148 22.2958C64.005 21.6403 64.2183 20.9559 64.7037 20.5124L71.5019 14.2911L62.5077 13.4388C61.8601 13.377 61.3032 12.9522 61.0502 12.3295L57.4999 3.65012L53.9453 12.3309C53.695 12.9493 53.1381 13.3741 52.4921 13.4359L43.4966 14.2882L50.2946 20.5095C50.7815 20.9543 50.9945 21.6374 50.8502 22.2945L48.8481 31.5046L56.6005 26.6678C56.8783 26.4957 57.1877 26.4083 57.4999 26.4083V26.4083ZM52.0479 11.4872C52.0479 11.4872 52.0479 11.4888 52.0464 11.4901L52.0479 11.4872ZM62.9491 11.483L62.9506 11.4859C62.9506 11.4844 62.9506 11.4844 62.9491 11.483Z" fill="black"/>
</svg>
