<svg width="40" height="40" viewBox="0 0 40 40" fill="none" xmlns="http://www.w3.org/2000/svg">
<rect width="40" height="40" fill="#FFFAFA"/>
<path d="M16.7092 16.894C16.4332 16.894 16.1932 16.798 15.9892 16.606C15.7852 16.402 15.6832 16.162 15.6832 15.886C15.6832 15.61 15.7852 15.37 15.9892 15.166C16.1932 14.962 16.4332 14.86 16.7092 14.86H23.0992C23.3752 14.86 23.6092 14.962 23.8012 15.166C24.0052 15.37 24.1072 15.61 24.1072 15.886C24.1072 16.57 23.8552 17.134 23.3512 17.578L20.4352 20.224C20.4232 20.236 20.4172 20.248 20.4172 20.26C20.4172 20.272 20.4232 20.278 20.4352 20.278H20.7232C21.8272 20.278 22.6972 20.596 23.3332 21.232C23.9692 21.856 24.2872 22.732 24.2872 23.86C24.2872 25.24 23.8672 26.308 23.0272 27.064C22.1872 27.808 20.9872 28.18 19.4272 28.18C18.5032 28.18 17.6092 28.072 16.7452 27.856C16.4572 27.784 16.2232 27.622 16.0432 27.37C15.8632 27.118 15.7732 26.836 15.7732 26.524V26.326C15.7732 26.086 15.8692 25.9 16.0612 25.768C16.2652 25.624 16.4872 25.588 16.7272 25.66C17.6992 25.984 18.5632 26.146 19.3192 26.146C20.1112 26.146 20.7232 25.954 21.1552 25.57C21.5872 25.186 21.8032 24.628 21.8032 23.896C21.8032 23.224 21.5572 22.744 21.0652 22.456C20.5852 22.156 19.7332 22.006 18.5092 22.006H18.3112C18.0712 22.006 17.8612 21.916 17.6812 21.736C17.5132 21.556 17.4292 21.346 17.4292 21.106C17.4292 20.506 17.6452 20.008 18.0772 19.612L21.0112 16.948C21.0232 16.936 21.0292 16.924 21.0292 16.912C21.0292 16.9 21.0232 16.894 21.0112 16.894H16.7092Z" fill="black"/>
<path d="M8.95284 40C8.5146 40 8.07941 39.8573 7.708 39.5771C7.01615 39.0539 6.69296 38.1545 6.88126 37.2868L9.45456 25.4583L0.727541 17.4721C0.0860452 16.8877 -0.159017 15.9623 0.104356 15.1155C0.367729 14.2703 1.0843 13.672 1.93271 13.5901L13.4796 12.4962L18.0449 1.34802C18.3815 0.528956 19.1481 0 19.9999 0C20.8516 0 21.6183 0.528956 21.9549 1.34611L26.5201 12.4962L38.0652 13.5901C38.9154 13.67 39.632 14.2703 39.8954 15.1155C40.1587 15.9607 39.9152 16.8877 39.2737 17.4721L30.5467 25.4567L33.12 37.2848C33.3086 38.1545 32.9851 39.0539 32.2936 39.5755C31.6035 40.0971 30.6834 40.1373 29.9568 39.6815L19.9999 33.4726L10.043 39.685C9.70634 39.8936 9.33127 40 8.95284 40V40ZM19.9999 30.7979C20.3783 30.7979 20.7531 30.9039 21.09 31.1125L30.4869 36.9772L28.0582 25.8131C27.8849 25.0185 28.1434 24.189 28.7318 23.6514L36.972 16.1104L26.07 15.0773C25.285 15.0025 24.61 14.4875 24.3033 13.7328L19.9999 3.21227L15.6913 13.7344C15.3879 14.484 14.7129 14.999 13.9298 15.0738L3.02618 16.1069L11.2661 23.6479C11.8564 24.1871 12.1145 25.015 11.9397 25.8115L9.51285 36.9753L18.9098 31.1125C19.2464 30.9039 19.6214 30.7979 19.9999 30.7979V30.7979ZM13.3914 12.7118C13.3914 12.7118 13.3914 12.7137 13.3896 12.7153L13.3914 12.7118ZM26.6049 12.7067L26.6068 12.7102C26.6068 12.7083 26.6068 12.7083 26.6049 12.7067Z" fill="black"/>
</svg>
