<svg width="40" height="40" viewBox="0 0 40 40" fill="none" xmlns="http://www.w3.org/2000/svg">
<rect width="40" height="40" fill="#FFFAFA"/>
<path d="M15.9072 21.702C15.7392 21.834 15.5592 21.852 15.3672 21.756C15.1872 21.66 15.0972 21.51 15.0972 21.306V20.586C15.0972 19.914 15.3672 19.368 15.9072 18.948L17.8332 17.472C18.3732 17.064 18.9852 16.86 19.6692 16.86H20.2092C20.4852 16.86 20.7192 16.962 20.9112 17.166C21.1152 17.37 21.2172 17.61 21.2172 17.886V28.974C21.2172 29.25 21.1152 29.49 20.9112 29.694C20.7192 29.898 20.4852 30 20.2092 30H19.6692C19.3932 30 19.1532 29.898 18.9492 29.694C18.7452 29.49 18.6432 29.25 18.6432 28.974V19.632L18.6252 19.614L18.6072 19.632L15.9072 21.702Z" fill="black"/>
<path d="M8.95284 40C8.5146 40 8.07941 39.8573 7.708 39.5771C7.01615 39.0539 6.69296 38.1545 6.88126 37.2868L9.45456 25.4583L0.727541 17.4721C0.0860452 16.8877 -0.159017 15.9623 0.104356 15.1155C0.367729 14.2703 1.0843 13.672 1.93271 13.5901L13.4796 12.4962L18.0449 1.34802C18.3815 0.528956 19.1481 0 19.9999 0C20.8516 0 21.6183 0.528956 21.9549 1.34611L26.5201 12.4962L38.0652 13.5901C38.9154 13.67 39.632 14.2703 39.8954 15.1155C40.1587 15.9607 39.9152 16.8877 39.2737 17.4721L30.5467 25.4567L33.12 37.2848C33.3086 38.1545 32.9851 39.0539 32.2936 39.5755C31.6035 40.0971 30.6834 40.1373 29.9568 39.6815L19.9999 33.4726L10.043 39.685C9.70634 39.8936 9.33127 40 8.95284 40V40ZM19.9999 30.7979C20.3783 30.7979 20.7531 30.9039 21.09 31.1125L30.4869 36.9772L28.0582 25.8131C27.8849 25.0185 28.1434 24.189 28.7318 23.6514L36.972 16.1104L26.07 15.0773C25.285 15.0025 24.61 14.4875 24.3033 13.7328L19.9999 3.21227L15.6913 13.7344C15.3879 14.484 14.7129 14.999 13.9298 15.0738L3.02618 16.1069L11.2661 23.6479C11.8564 24.1871 12.1145 25.015 11.9397 25.8115L9.51285 36.9753L18.9098 31.1125C19.2464 30.9039 19.6214 30.7979 19.9999 30.7979V30.7979ZM13.3914 12.7118C13.3914 12.7118 13.3914 12.7137 13.3896 12.7153L13.3914 12.7118ZM26.6049 12.7067L26.6068 12.7102C26.6068 12.7083 26.6068 12.7083 26.6049 12.7067Z" fill="black"/>
</svg>
