<svg width="199" height="33" viewBox="0 0 199 33" fill="none" xmlns="http://www.w3.org/2000/svg">
<rect width="199" height="33" fill="#FFFAFA"/>
<path d="M32.914 12.9506C32.698 12.2824 32.1053 11.8078 31.4041 11.7446L21.8794 10.8797L18.113 2.06426C17.8353 1.4182 17.2029 1 16.5002 1C15.7975 1 15.165 1.4182 14.8873 2.06577L11.121 10.8797L1.59475 11.7446C0.894809 11.8093 0.303638 12.2824 0.0863552 12.9506C-0.130928 13.6188 0.0697379 14.3517 0.599224 14.8137L7.79877 21.1278L5.67579 30.4795C5.52045 31.1671 5.78733 31.8779 6.35786 32.2903C6.66452 32.5118 7.0233 32.6246 7.3851 32.6246C7.69705 32.6246 8.00649 32.5405 8.2842 32.3744L16.5002 27.464L24.7131 32.3744C25.3141 32.7359 26.0717 32.7029 26.641 32.2903C27.2117 31.8766 27.4784 31.1656 27.323 30.4795L25.2001 21.1278L32.3996 14.815C32.9291 14.3517 33.1313 13.62 32.914 12.9506V12.9506Z" fill="#FFC107"/>
<path d="M74.914 12.9506C74.698 12.2824 74.1053 11.8078 73.4041 11.7446L63.8794 10.8797L60.113 2.06426C59.8353 1.4182 59.2029 1 58.5002 1C57.7975 1 57.165 1.4182 56.8873 2.06577L53.121 10.8797L43.5947 11.7446C42.8948 11.8093 42.3036 12.2824 42.0864 12.9506C41.8691 13.6188 42.0697 14.3517 42.5992 14.8137L49.7988 21.1278L47.6758 30.4795C47.5204 31.1671 47.7873 31.8779 48.3579 32.2903C48.6645 32.5118 49.0233 32.6246 49.3851 32.6246C49.6971 32.6246 50.0065 32.5405 50.2842 32.3744L58.5002 27.464L66.7131 32.3744C67.3141 32.7359 68.0717 32.7029 68.641 32.2903C69.2117 31.8766 69.4784 31.1656 69.323 30.4795L67.2001 21.1278L74.3996 14.815C74.9291 14.3517 75.1313 13.62 74.914 12.9506V12.9506Z" fill="#FFC107"/>
<path d="M115.914 12.9506C115.698 12.2824 115.105 11.8078 114.404 11.7446L104.879 10.8797L101.113 2.06426C100.835 1.4182 100.203 1 99.5002 1C98.7975 1 98.165 1.4182 97.8873 2.06577L94.121 10.8797L84.5947 11.7446C83.8948 11.8093 83.3036 12.2824 83.0864 12.9506C82.8691 13.6188 83.0697 14.3517 83.5992 14.8137L90.7988 21.1278L88.6758 30.4795C88.5204 31.1671 88.7873 31.8779 89.3579 32.2903C89.6645 32.5118 90.0233 32.6246 90.3851 32.6246C90.6971 32.6246 91.0065 32.5405 91.2842 32.3744L99.5002 27.464L107.713 32.3744C108.314 32.7359 109.072 32.7029 109.641 32.2903C110.212 31.8766 110.478 31.1656 110.323 30.4795L108.2 21.1278L115.4 14.815C115.929 14.3517 116.131 13.62 115.914 12.9506V12.9506Z" fill="#FFC107"/>
<path d="M156.914 12.9506C156.698 12.2824 156.105 11.8078 155.404 11.7446L145.879 10.8797L142.113 2.06426C141.835 1.4182 141.203 1 140.5 1C139.797 1 139.165 1.4182 138.887 2.06577L135.121 10.8797L125.595 11.7446C124.895 11.8093 124.304 12.2824 124.086 12.9506C123.869 13.6188 124.07 14.3517 124.599 14.8137L131.799 21.1278L129.676 30.4795C129.52 31.1671 129.787 31.8779 130.358 32.2903C130.665 32.5118 131.023 32.6246 131.385 32.6246C131.697 32.6246 132.006 32.5405 132.284 32.3744L140.5 27.464L148.713 32.3744C149.314 32.7359 150.072 32.7029 150.641 32.2903C151.212 31.8766 151.478 31.1656 151.323 30.4795L149.2 21.1278L156.4 14.815C156.929 14.3517 157.131 13.62 156.914 12.9506V12.9506Z" fill="#FFC107"/>
<path d="M173.386 33C173.025 33 172.666 32.8823 172.359 32.6511C171.788 32.2194 171.522 31.4775 171.677 30.7616L173.8 21.0031L166.6 14.4145C166.071 13.9324 165.869 13.1689 166.086 12.4703C166.303 11.773 166.895 11.2794 167.594 11.2118L177.121 10.3094L180.887 1.11212C181.165 0.436388 181.797 0 182.5 0C183.203 0 183.835 0.436388 184.113 1.11054L187.879 10.3094L197.404 11.2118C198.105 11.2778 198.696 11.773 198.914 12.4703C199.131 13.1676 198.93 13.9324 198.401 14.4145L191.201 21.0018L193.324 30.76C193.48 31.4775 193.213 32.2194 192.642 32.6498C192.073 33.0801 191.314 33.1132 190.714 32.7373L182.5 27.6149L174.285 32.7402C174.008 32.9122 173.698 33 173.386 33V33ZM182.5 25.4083C182.812 25.4083 183.121 25.4957 183.399 25.6678L191.152 30.5062L189.148 21.2958C189.005 20.6403 189.218 19.9559 189.704 19.5124L196.502 13.2911L187.508 12.4388C186.86 12.377 186.303 11.9522 186.05 11.3295L182.5 2.65012L178.945 11.3309C178.695 11.9493 178.138 12.3741 177.492 12.4359L168.497 13.2882L175.295 19.5095C175.781 19.9543 175.994 20.6374 175.85 21.2945L173.848 30.5046L181.601 25.6678C181.878 25.4957 182.188 25.4083 182.5 25.4083V25.4083ZM177.048 10.4872C177.048 10.4872 177.048 10.4888 177.046 10.4901L177.048 10.4872ZM187.949 10.483L187.951 10.4859C187.951 10.4844 187.951 10.4844 187.949 10.483Z" fill="black"/>
</svg>
