<svg width="197" height="32" viewBox="0 0 197 32" fill="none" xmlns="http://www.w3.org/2000/svg">
<rect width="197" height="32" fill="#FBFCFF"/>
<path d="M32.914 11.9506C32.698 11.2824 32.1053 10.8078 31.4041 10.7446L21.8794 9.87971L18.113 1.06426C17.8353 0.418201 17.2029 0 16.5002 0C15.7975 0 15.165 0.418201 14.8873 1.06577L11.121 9.87971L1.59475 10.7446C0.894809 10.8093 0.303638 11.2824 0.0863552 11.9506C-0.130928 12.6188 0.0697379 13.3517 0.599224 13.8137L7.79877 20.1278L5.67579 29.4795C5.52045 30.1671 5.78733 30.8779 6.35786 31.2903C6.66452 31.5118 7.0233 31.6246 7.3851 31.6246C7.69705 31.6246 8.00649 31.5405 8.2842 31.3744L16.5002 26.464L24.7131 31.3744C25.3141 31.7359 26.0717 31.7029 26.641 31.2903C27.2117 30.8766 27.4784 30.1656 27.323 29.4795L25.2001 20.1278L32.3996 13.815C32.9291 13.3517 33.1313 12.62 32.914 11.9506V11.9506Z" fill="#FFC107"/>
<path d="M73.914 11.9506C73.698 11.2824 73.1053 10.8078 72.4041 10.7446L62.8794 9.87971L59.113 1.06426C58.8353 0.418201 58.2029 0 57.5002 0C56.7975 0 56.165 0.418201 55.8873 1.06577L52.121 9.87971L42.5947 10.7446C41.8948 10.8093 41.3036 11.2824 41.0864 11.9506C40.8691 12.6188 41.0697 13.3517 41.5992 13.8137L48.7988 20.1278L46.6758 29.4795C46.5204 30.1671 46.7873 30.8779 47.3579 31.2903C47.6645 31.5118 48.0233 31.6246 48.3851 31.6246C48.6971 31.6246 49.0065 31.5405 49.2842 31.3744L57.5002 26.464L65.7131 31.3744C66.3141 31.7359 67.0717 31.7029 67.641 31.2903C68.2117 30.8766 68.4784 30.1656 68.323 29.4795L66.2001 20.1278L73.3996 13.815C73.9291 13.3517 74.1313 12.62 73.914 11.9506V11.9506Z" fill="#FFC107"/>
<path d="M114.914 11.9506C114.698 11.2824 114.105 10.8078 113.404 10.7446L103.879 9.87971L100.113 1.06426C99.8353 0.418201 99.2029 0 98.5002 0C97.7975 0 97.165 0.418201 96.8873 1.06577L93.121 9.87971L83.5947 10.7446C82.8948 10.8093 82.3036 11.2824 82.0864 11.9506C81.8691 12.6188 82.0697 13.3517 82.5992 13.8137L89.7988 20.1278L87.6758 29.4795C87.5204 30.1671 87.7873 30.8779 88.3579 31.2903C88.6645 31.5118 89.0233 31.6246 89.3851 31.6246C89.6971 31.6246 90.0065 31.5405 90.2842 31.3744L98.5002 26.464L106.713 31.3744C107.314 31.7359 108.072 31.7029 108.641 31.2903C109.212 30.8766 109.478 30.1656 109.323 29.4795L107.2 20.1278L114.4 13.815C114.929 13.3517 115.131 12.62 114.914 11.9506V11.9506Z" fill="#FFC107"/>
<path d="M155.914 11.9506C155.698 11.2824 155.105 10.8078 154.404 10.7446L144.879 9.87971L141.113 1.06426C140.835 0.418201 140.203 0 139.5 0C138.797 0 138.165 0.418201 137.887 1.06577L134.121 9.87971L124.595 10.7446C123.895 10.8093 123.304 11.2824 123.086 11.9506C122.869 12.6188 123.07 13.3517 123.599 13.8137L130.799 20.1278L128.676 29.4795C128.52 30.1671 128.787 30.8779 129.358 31.2903C129.665 31.5118 130.023 31.6246 130.385 31.6246C130.697 31.6246 131.006 31.5405 131.284 31.3744L139.5 26.464L147.713 31.3744C148.314 31.7359 149.072 31.7029 149.641 31.2903C150.212 30.8766 150.478 30.1656 150.323 29.4795L148.2 20.1278L155.4 13.815C155.929 13.3517 156.131 12.62 155.914 11.9506V11.9506Z" fill="#FFC107"/>
<path d="M196.914 11.9506C196.698 11.2824 196.105 10.8078 195.404 10.7446L185.879 9.87971L182.113 1.06426C181.835 0.418201 181.203 0 180.5 0C179.797 0 179.165 0.418201 178.887 1.06577L175.121 9.87971L165.595 10.7446C164.895 10.8093 164.304 11.2824 164.086 11.9506C163.869 12.6188 164.07 13.3517 164.599 13.8137L171.799 20.1278L169.676 29.4795C169.52 30.1671 169.787 30.8779 170.358 31.2903C170.665 31.5118 171.023 31.6246 171.385 31.6246C171.697 31.6246 172.006 31.5405 172.284 31.3744L180.5 26.464L188.713 31.3744C189.314 31.7359 190.072 31.7029 190.641 31.2903C191.212 30.8766 191.478 30.1656 191.323 29.4795L189.2 20.1278L196.4 13.815C196.929 13.3517 197.131 12.62 196.914 11.9506V11.9506Z" fill="#FFC107"/>
</svg>
