<svg width="40" height="40" viewBox="0 0 40 40" fill="none" xmlns="http://www.w3.org/2000/svg">
<rect width="40" height="40" fill="#FFFAFA"/>
<path d="M16.8712 27.91C16.5832 27.838 16.3432 27.682 16.1512 27.442C15.9712 27.19 15.8812 26.908 15.8812 26.596V26.416C15.8812 26.176 15.9772 25.984 16.1692 25.84C16.3732 25.696 16.5892 25.66 16.8172 25.732C17.7172 26.008 18.4912 26.146 19.1392 26.146C21.0472 26.146 22.0012 25.282 22.0012 23.554C22.0012 22.126 21.3112 21.412 19.9312 21.412C19.5712 21.412 19.2292 21.478 18.9052 21.61C18.0292 21.97 17.4112 22.15 17.0512 22.15H16.9252C16.6492 22.15 16.4152 22.048 16.2232 21.844C16.0312 21.64 15.9412 21.4 15.9532 21.124L16.2232 15.886C16.2472 15.598 16.3552 15.358 16.5472 15.166C16.7512 14.962 16.9972 14.86 17.2852 14.86H22.9012C23.1772 14.86 23.4112 14.962 23.6032 15.166C23.8072 15.37 23.9092 15.61 23.9092 15.886C23.9092 16.162 23.8072 16.402 23.6032 16.606C23.4112 16.798 23.1772 16.894 22.9012 16.894H18.7072C18.5992 16.894 18.5452 16.948 18.5452 17.056L18.4012 19.918C18.4012 19.93 18.4072 19.936 18.4192 19.936H18.4372L18.4552 19.918C19.0552 19.63 19.7032 19.486 20.3992 19.486C21.6952 19.486 22.6972 19.84 23.4052 20.548C24.1252 21.256 24.4852 22.258 24.4852 23.554C24.4852 26.638 22.7272 28.18 19.2112 28.18C18.4072 28.18 17.6272 28.09 16.8712 27.91Z" fill="black"/>
<path d="M8.95284 40C8.5146 40 8.07941 39.8573 7.708 39.5771C7.01615 39.0539 6.69296 38.1545 6.88126 37.2868L9.45456 25.4583L0.727541 17.4721C0.0860452 16.8877 -0.159017 15.9623 0.104356 15.1155C0.367729 14.2703 1.0843 13.672 1.93271 13.5901L13.4796 12.4962L18.0449 1.34802C18.3815 0.528956 19.1481 0 19.9999 0C20.8516 0 21.6183 0.528956 21.9549 1.34611L26.5201 12.4962L38.0652 13.5901C38.9154 13.67 39.632 14.2703 39.8954 15.1155C40.1587 15.9607 39.9152 16.8877 39.2737 17.4721L30.5467 25.4567L33.12 37.2848C33.3086 38.1545 32.9851 39.0539 32.2936 39.5755C31.6035 40.0971 30.6834 40.1373 29.9568 39.6815L19.9999 33.4726L10.043 39.685C9.70634 39.8936 9.33127 40 8.95284 40V40ZM19.9999 30.7979C20.3783 30.7979 20.7531 30.9039 21.09 31.1125L30.4869 36.9772L28.0582 25.8131C27.8849 25.0185 28.1434 24.189 28.7318 23.6514L36.972 16.1104L26.07 15.0773C25.285 15.0025 24.61 14.4875 24.3033 13.7328L19.9999 3.21227L15.6913 13.7344C15.3879 14.484 14.7129 14.999 13.9298 15.0738L3.02618 16.1069L11.2661 23.6479C11.8564 24.1871 12.1145 25.015 11.9397 25.8115L9.51285 36.9753L18.9098 31.1125C19.2464 30.9039 19.6214 30.7979 19.9999 30.7979V30.7979ZM13.3914 12.7118C13.3914 12.7118 13.3914 12.7137 13.3896 12.7153L13.3914 12.7118ZM26.6049 12.7067L26.6068 12.7102C26.6068 12.7083 26.6068 12.7083 26.6049 12.7067Z" fill="black"/>
</svg>
