<svg width="40" height="40" viewBox="0 0 40 40" fill="none" xmlns="http://www.w3.org/2000/svg">
<rect width="40" height="40" fill="#FFFAFA"/>
<path d="M24.3232 18.514C24.3232 19.642 23.9632 20.728 23.2432 21.772C22.5352 22.804 21.1552 24.178 19.1032 25.894C19.0792 25.918 19.0672 25.936 19.0672 25.948C19.0672 25.96 19.0732 25.966 19.0852 25.966H23.3332C23.6092 25.966 23.8492 26.068 24.0532 26.272C24.2572 26.464 24.3592 26.698 24.3592 26.974C24.3592 27.25 24.2572 27.49 24.0532 27.694C23.8492 27.898 23.6092 28 23.3332 28H16.7272C16.4512 28 16.2112 27.898 16.0072 27.694C15.8152 27.49 15.7192 27.25 15.7192 26.974C15.7192 26.29 15.9772 25.744 16.4932 25.336C18.5692 23.68 19.9612 22.39 20.6692 21.466C21.3772 20.542 21.7312 19.642 21.7312 18.766C21.7312 17.434 21.0172 16.768 19.5892 16.768C18.8572 16.768 17.9692 16.972 16.9252 17.38C16.6972 17.476 16.4812 17.458 16.2772 17.326C16.0852 17.194 15.9892 17.014 15.9892 16.786V16.48C15.9892 16.168 16.0732 15.886 16.2412 15.634C16.4212 15.37 16.6552 15.196 16.9432 15.112C17.9632 14.824 18.9652 14.68 19.9492 14.68C21.3532 14.68 22.4332 15.016 23.1892 15.688C23.9452 16.36 24.3232 17.302 24.3232 18.514Z" fill="black"/>
<path d="M8.95284 40C8.5146 40 8.07941 39.8573 7.708 39.5771C7.01615 39.0539 6.69296 38.1545 6.88126 37.2868L9.45456 25.4583L0.727541 17.4721C0.0860452 16.8877 -0.159017 15.9623 0.104356 15.1155C0.367729 14.2703 1.0843 13.672 1.93271 13.5901L13.4796 12.4962L18.0449 1.34802C18.3815 0.528956 19.1481 0 19.9999 0C20.8516 0 21.6183 0.528956 21.9549 1.34611L26.5201 12.4962L38.0652 13.5901C38.9154 13.67 39.632 14.2703 39.8954 15.1155C40.1587 15.9607 39.9152 16.8877 39.2737 17.4721L30.5467 25.4567L33.12 37.2848C33.3086 38.1545 32.9851 39.0539 32.2936 39.5755C31.6035 40.0971 30.6834 40.1373 29.9568 39.6815L19.9999 33.4726L10.043 39.685C9.70634 39.8936 9.33127 40 8.95284 40V40ZM19.9999 30.7979C20.3783 30.7979 20.7531 30.9039 21.09 31.1125L30.4869 36.9772L28.0582 25.8131C27.8849 25.0185 28.1434 24.189 28.7318 23.6514L36.972 16.1104L26.07 15.0773C25.285 15.0025 24.61 14.4875 24.3033 13.7328L19.9999 3.21227L15.6913 13.7344C15.3879 14.484 14.7129 14.999 13.9298 15.0738L3.02618 16.1069L11.2661 23.6479C11.8564 24.1871 12.1145 25.015 11.9397 25.8115L9.51285 36.9753L18.9098 31.1125C19.2464 30.9039 19.6214 30.7979 19.9999 30.7979V30.7979ZM13.3914 12.7118C13.3914 12.7118 13.3914 12.7137 13.3896 12.7153L13.3914 12.7118ZM26.6049 12.7067L26.6068 12.7102C26.6068 12.7083 26.6068 12.7083 26.6049 12.7067Z" fill="black"/>
</svg>
