<svg width="197" height="34" viewBox="0 0 197 34" fill="none" xmlns="http://www.w3.org/2000/svg">
<rect width="197" height="34" fill="#FBFCFF"/>
<path d="M32.914 13.9506C32.698 13.2824 32.1053 12.8078 31.4041 12.7446L21.8794 11.8797L18.113 3.06426C17.8353 2.4182 17.2029 2 16.5002 2C15.7975 2 15.165 2.4182 14.8873 3.06577L11.121 11.8797L1.59475 12.7446C0.894809 12.8093 0.303638 13.2824 0.0863552 13.9506C-0.130928 14.6188 0.0697379 15.3517 0.599224 15.8137L7.79877 22.1278L5.67579 31.4795C5.52045 32.1671 5.78733 32.8779 6.35786 33.2903C6.66452 33.5118 7.0233 33.6246 7.3851 33.6246C7.69705 33.6246 8.00649 33.5405 8.2842 33.3744L16.5002 28.464L24.7131 33.3744C25.3141 33.7359 26.0717 33.7029 26.641 33.2903C27.2117 32.8766 27.4784 32.1656 27.323 31.4795L25.2001 22.1278L32.3996 15.815C32.9291 15.3517 33.1313 14.62 32.914 13.9506V13.9506Z" fill="#FFC107"/>
<path d="M73.914 13.9506C73.698 13.2824 73.1053 12.8078 72.4041 12.7446L62.8794 11.8797L59.113 3.06426C58.8353 2.4182 58.2029 2 57.5002 2C56.7975 2 56.165 2.4182 55.8873 3.06577L52.121 11.8797L42.5947 12.7446C41.8948 12.8093 41.3036 13.2824 41.0864 13.9506C40.8691 14.6188 41.0697 15.3517 41.5992 15.8137L48.7988 22.1278L46.6758 31.4795C46.5204 32.1671 46.7873 32.8779 47.3579 33.2903C47.6645 33.5118 48.0233 33.6246 48.3851 33.6246C48.6971 33.6246 49.0065 33.5405 49.2842 33.3744L57.5002 28.464L65.7131 33.3744C66.3141 33.7359 67.0717 33.7029 67.641 33.2903C68.2117 32.8766 68.4784 32.1656 68.323 31.4795L66.2001 22.1278L73.3996 15.815C73.9291 15.3517 74.1313 14.62 73.914 13.9506V13.9506Z" fill="#FFC107"/>
<path d="M114.914 13.9506C114.698 13.2824 114.105 12.8078 113.404 12.7446L103.879 11.8797L100.113 3.06426C99.8353 2.4182 99.2029 2 98.5002 2C97.7975 2 97.165 2.4182 96.8873 3.06577L93.121 11.8797L83.5947 12.7446C82.8948 12.8093 82.3036 13.2824 82.0864 13.9506C81.8691 14.6188 82.0697 15.3517 82.5992 15.8137L89.7988 22.1278L87.6758 31.4795C87.5204 32.1671 87.7873 32.8779 88.3579 33.2903C88.6645 33.5118 89.0233 33.6246 89.3851 33.6246C89.6971 33.6246 90.0065 33.5405 90.2842 33.3744L98.5002 28.464L106.713 33.3744C107.314 33.7359 108.072 33.7029 108.641 33.2903C109.212 32.8766 109.478 32.1656 109.323 31.4795L107.2 22.1278L114.4 15.815C114.929 15.3517 115.131 14.62 114.914 13.9506V13.9506Z" fill="#FFC107"/>
<path d="M171.386 33C171.025 33 170.666 32.8823 170.359 32.6511C169.788 32.2194 169.522 31.4775 169.677 30.7616L171.8 21.0031L164.6 14.4145C164.071 13.9324 163.869 13.1689 164.086 12.4703C164.303 11.773 164.895 11.2794 165.594 11.2118L175.121 10.3094L178.887 1.11212C179.165 0.436388 179.797 0 180.5 0C181.203 0 181.835 0.436388 182.113 1.11054L185.879 10.3094L195.404 11.2118C196.105 11.2778 196.696 11.773 196.914 12.4703C197.131 13.1676 196.93 13.9324 196.401 14.4145L189.201 21.0018L191.324 30.76C191.48 31.4775 191.213 32.2194 190.642 32.6498C190.073 33.0801 189.314 33.1132 188.714 32.7373L180.5 27.6149L172.285 32.7402C172.008 32.9122 171.698 33 171.386 33V33ZM180.5 25.4083C180.812 25.4083 181.121 25.4957 181.399 25.6678L189.152 30.5062L187.148 21.2958C187.005 20.6403 187.218 19.9559 187.704 19.5124L194.502 13.2911L185.508 12.4388C184.86 12.377 184.303 11.9522 184.05 11.3295L180.5 2.65012L176.945 11.3309C176.695 11.9493 176.138 12.3741 175.492 12.4359L166.497 13.2882L173.295 19.5095C173.781 19.9543 173.994 20.6374 173.85 21.2945L171.848 30.5046L179.601 25.6678C179.878 25.4957 180.188 25.4083 180.5 25.4083V25.4083ZM175.048 10.4872C175.048 10.4872 175.048 10.4888 175.046 10.4901L175.048 10.4872ZM185.949 10.483L185.951 10.4859C185.951 10.4844 185.951 10.4844 185.949 10.483Z" fill="black"/>
<path d="M130.386 34C130.025 34 129.666 33.8823 129.359 33.6511C128.788 33.2194 128.522 32.4775 128.677 31.7616L130.8 22.0031L123.6 15.4145C123.071 14.9324 122.869 14.1689 123.086 13.4703C123.303 12.773 123.895 12.2794 124.594 12.2118L134.121 11.3094L137.887 2.11212C138.165 1.43639 138.797 1 139.5 1C140.203 1 140.835 1.43639 141.113 2.11054L144.879 11.3094L154.404 12.2118C155.105 12.2778 155.696 12.773 155.914 13.4703C156.131 14.1676 155.93 14.9324 155.401 15.4145L148.201 22.0018L150.324 31.76C150.48 32.4775 150.213 33.2194 149.642 33.6498C149.073 34.0801 148.314 34.1132 147.714 33.7373L139.5 28.6149L131.285 33.7402C131.008 33.9122 130.698 34 130.386 34V34ZM139.5 26.4083C139.812 26.4083 140.121 26.4957 140.399 26.6678L148.152 31.5062L146.148 22.2958C146.005 21.6403 146.218 20.9559 146.704 20.5124L153.502 14.2911L144.508 13.4388C143.86 13.377 143.303 12.9522 143.05 12.3295L139.5 3.65012L135.945 12.3309C135.695 12.9493 135.138 13.3741 134.492 13.4359L125.497 14.2882L132.295 20.5095C132.781 20.9543 132.994 21.6374 132.85 22.2945L130.848 31.5046L138.601 26.6678C138.878 26.4957 139.188 26.4083 139.5 26.4083V26.4083ZM134.048 11.4872C134.048 11.4872 134.048 11.4888 134.046 11.4901L134.048 11.4872ZM144.949 11.483L144.951 11.4859C144.951 11.4844 144.951 11.4844 144.949 11.483Z" fill="black"/>
</svg>
